<!-- Generated by IcoMoon.io -->
<svg version="1.1" fill="black" xmlns="http://www.w3.org/2000/svg" width="24" height="24" viewBox="0 0 3371 1024">
<title></title>
<g id="icomoon-ignore">
</g>
<path d="M207.36 1011.2h-207.36v-1011.2h231.68c47.786 0 86.614 2.56 116.48 7.68 30.72 4.267 54.614 13.653 71.68 28.16s28.587 35.413 34.56 62.72c6.827 26.453 10.24 62.294 10.24 107.52v104.96c0 26.454-2.987 48.214-8.96 65.28s-13.653 30.72-23.040 40.96c-8.534 10.24-17.92 17.92-28.16 23.040-10.24 4.267-19.626 7.253-28.16 8.96v5.12c12.8 3.413 24.32 8.533 34.56 15.36 11.094 5.973 20.48 15.36 28.16 28.16s13.653 29.867 17.92 51.2c5.12 20.48 7.68 46.933 7.68 79.36v382.72h-208.64v-448c0-11.093-1.28-18.347-3.84-21.76-2.56-4.267-9.386-6.4-20.48-6.4h-24.32v476.16zM207.36 372.48h24.32c11.094 0 17.92-1.706 20.48-5.12 2.56-4.266 3.84-11.946 3.84-23.040v-138.24c0-11.094-1.28-18.346-3.84-21.76-2.56-4.266-9.386-6.4-20.48-6.4h-24.32v194.56zM950.46 861.44c0 35.84-2.987 64.427-8.96 85.76-5.12 21.333-15.36 37.973-30.72 49.92-14.507 11.093-34.987 18.347-61.44 21.76-25.6 3.413-59.307 5.12-101.12 5.12-40.96 0-74.667-1.707-101.12-5.12s-46.933-10.667-61.44-21.76c-14.507-11.947-24.747-28.587-30.72-49.92-5.12-21.333-7.68-49.92-7.68-85.76v-467.2c0-35.84 2.56-64.426 7.68-85.76 5.973-21.334 16.213-37.546 30.72-48.64 14.507-11.946 34.987-19.626 61.44-23.040s60.16-5.12 101.12-5.12c41.813 0 75.52 1.706 101.12 5.12 26.453 3.414 46.933 11.094 61.44 23.040 15.36 11.094 25.6 27.306 30.72 48.64 5.973 21.334 8.96 49.92 8.96 85.76v467.2zM725.18 825.6c0 11.093 1.28 18.773 3.84 23.040 2.56 3.413 8.96 5.12 19.2 5.12 11.093 0 17.92-1.707 20.48-5.12 2.56-4.267 3.84-11.947 3.84-23.040v-395.52c0-11.094-1.28-18.346-3.84-21.76-2.56-4.266-9.387-6.4-20.48-6.4-10.24 0-16.64 2.134-19.2 6.4-2.56 3.414-3.84 10.666-3.84 21.76v395.52zM1225.54 0v279.040c11.093-15.36 24.747-26.026 40.96-32 17.067-5.974 37.973-8.96 62.72-8.96s44.8 2.986 60.16 8.96c15.36 5.12 26.88 13.654 34.56 25.6 8.533 11.946 14.080 28.16 16.64 48.64 3.413 19.626 5.12 43.946 5.12 72.96v467.2c0 29.867-1.707 55.040-5.12 75.52-2.56 19.627-8.107 35.413-16.64 47.36s-20.907 20.48-37.12 25.6c-16.213 5.12-37.12 7.68-62.72 7.68-29.013 0-52.48-2.987-70.4-8.96-17.92-6.827-31.573-17.493-40.96-32v34.56h-170.24v-1011.2h183.040zM1267.78 430.080c0-10.24-1.28-17.494-3.84-21.76-1.707-4.266-7.253-6.4-16.64-6.4-8.533 0-14.933 1.706-19.2 5.12-3.413 2.56-5.973 6.826-7.68 12.8v416c1.707 5.973 4.267 10.667 7.68 14.080 4.267 2.56 10.667 3.84 19.2 3.84 9.387 0 14.933-2.133 16.64-6.4 2.56-4.267 3.84-11.52 3.84-21.76v-395.52zM1721.818 133.12h-181.756v-133.12h181.756v133.12zM1721.818 1011.2h-181.756v-766.72h181.756v766.72zM2242.257 1011.2h-184.32v-581.12c0-10.24-1.28-17.494-3.84-21.76-1.719-4.266-7.258-6.4-16.64-6.4-8.538 0-14.938 1.706-19.2 5.12-3.418 2.56-6.4 6.826-8.96 12.8v591.36h-183.040v-766.72h170.24v34.56c9.382-14.506 23.040-24.746 40.96-30.72 17.92-6.826 41.382-10.24 70.4-10.24 25.6 0 46.921 2.56 64 7.68 17.92 5.12 32 13.654 42.24 25.6s17.481 28.16 21.76 48.64c4.262 19.626 6.4 44.374 6.4 74.24v616.96zM2525.611 1011.2h-185.6v-180.48h185.6v180.48zM3346.325 0l-104.96 1011.2h-261.12l-34.56-733.44h-5.12l-42.24 733.44h-264.96l-78.080-1011.2h208.64l21.76 709.12h5.12l30.72-709.12h256l21.76 709.12h5.12l32-709.12h209.92z"></path>
</svg>
