<svg aria-hidden="true" style="position: absolute; width: 0; height: 0; overflow: hidden;" version="1.1" xmlns="http://www.w3.org/2000/svg" xmlns:xlink="http://www.w3.org/1999/xlink">
<defs>
<symbol id="icon-LinkedIn-1" viewBox="0 0 32 32">
<path d="M26.2 4h-20.4c-0.96 0-1.8 0.724-1.8 1.688v20.623c0 0.965 0.84 1.688 1.8 1.688h20.4c0.96 0 1.8-0.724 1.8-1.688v-20.623c0-0.844-0.84-1.688-1.8-1.688zM11.080 24.623h-3.6v-11.457h3.6v11.457zM9.28 11.477c-1.2 0-2.040-0.965-2.040-2.050s0.96-2.050 2.040-2.050c1.080 0 2.040 0.965 2.040 2.050 0.12 1.206-0.84 2.050-2.040 2.050zM24.4 24.623h-3.6v-5.548c0-1.327 0-3.015-1.8-3.015s-2.16 1.447-2.16 3.015v5.668h-3.6v-11.457h3.36v1.568c0.48-0.965 1.68-1.809 3.36-1.809 3.6 0 4.32 2.412 4.32 5.427v6.151h0.12z"></path>
</symbol>
<symbol id="icon-Dribbble-Logo-1" viewBox="0 0 32 32">
<path d="M16 29.333c-7.352 0-13.333-5.981-13.333-13.333s5.981-13.333 13.333-13.333c7.352 0 13.333 5.981 13.333 13.333s-5.981 13.333-13.333 13.333zM27.245 17.825c-0.39-0.123-3.525-1.058-7.094-0.487 1.49 4.093 2.096 7.427 2.212 8.12 2.555-1.728 4.374-4.464 4.882-7.633zM20.449 26.501c-0.169-0.999-0.831-4.481-2.43-8.636-0.025 0.009-0.050 0.017-0.075 0.025-6.424 2.238-8.73 6.693-8.934 7.112 1.6 1.247 3.504 2.044 5.515 2.308s4.057-0.016 5.924-0.809zM7.539 23.632c0.258-0.442 3.384-5.617 9.257-7.515 0.148-0.048 0.298-0.093 0.449-0.135-0.286-0.647-0.597-1.295-0.923-1.933-5.687 1.702-11.206 1.631-11.705 1.621-0.003 0.116-0.006 0.231-0.006 0.348-0.002 2.813 1.041 5.527 2.928 7.615zM4.852 13.685c0.509 0.007 5.202 0.027 10.529-1.388-1.887-3.354-3.922-6.175-4.222-6.587-3.186 1.503-5.568 4.44-6.306 7.974zM13.331 4.945c0.315 0.421 2.383 3.238 4.25 6.667 4.050-1.518 5.764-3.822 5.969-4.114-1.371-1.218-3.017-2.086-4.796-2.53s-3.64-0.452-5.423-0.023zM24.816 8.815c-0.24 0.325-2.148 2.771-6.359 4.49 0.265 0.543 0.519 1.094 0.756 1.65 0.084 0.197 0.166 0.393 0.245 0.588 3.789-0.477 7.555 0.287 7.93 0.367-0.022-2.589-0.929-5.093-2.572-7.094z"></path>
</symbol>
<symbol id="icon-Twitter-Logo-1" viewBox="0 0 32 32">
<path d="M29.333 9.163c-0.92 0.394-1.97 0.657-3.153 0.788 1.051-0.657 1.97-1.708 2.365-2.89-1.051 0.657-2.233 1.051-3.415 1.314-0.92-1.051-2.365-1.708-3.941-1.708-3.021 0-5.386 2.365-5.386 5.255 0 0.394 0 0.788 0.131 1.182-4.466-0.263-8.407-2.365-11.166-5.517-0.525 0.788-0.788 1.708-0.788 2.627 0 1.839 0.92 3.415 2.365 4.466-0.92 0-1.708-0.263-2.496-0.657 0 0 0 0 0 0.131 0 2.627 1.839 4.729 4.335 5.255-0.394 0.131-0.92 0.131-1.445 0.131-0.394 0-0.657 0-1.051-0.131 0.657 2.102 2.627 3.678 4.992 3.678-1.839 1.445-4.204 2.233-6.699 2.233-0.394 0-0.92-0-1.314-0.131 2.365 1.576 5.255 2.365 8.276 2.365 9.852 0 15.369-8.144 15.369-15.107 0-0.263 0-0.525 0-0.657 1.445-0.657 2.365-1.576 3.021-2.627z"></path>
</symbol>
<symbol id="icon-Group-62" viewBox="0 0 32 32">
<path stroke-linejoin="miter" stroke-linecap="butt" stroke-miterlimit="4" stroke-width="2" d="M31 16c0 8.284-6.716 15-15 15s-15-6.716-15-15c0-8.284 6.716-15 15-15s15 6.716 15 15z"></path>
<path d="M21 16l-7.5 4.33v-8.66l7.5 4.33z"></path>
</symbol>
<symbol id="icon-Frame-16" viewBox="0 0 32 32">
<path d="M29.828 8.236h-2.928l-0.673-3.034c-0.287-1.296-1.417-2.201-2.746-2.201h-10.164c-1.33 0-2.459 0.905-2.746 2.201l-0.673 3.034h-0.695v-1.295c0-0.73-0.595-1.323-1.325-1.323h-4.286c-0.731 0-1.325 0.594-1.325 1.323v1.295h-0.094c-1.198 0-2.172 0.973-2.172 2.169v14.688c0 1.196 0.975 2.169 2.172 2.169h10.075c1.773 1.147 3.886 1.814 6.152 1.814s4.378-0.667 6.151-1.814h5.278c1.198 0 2.172-0.973 2.172-2.169v-14.688c0-1.196-0.974-2.169-2.172-2.169zM11.79 5.471c0.16-0.72 0.787-1.223 1.526-1.223h10.164c0.739 0 1.366 0.503 1.526 1.223l0.613 2.765h-1.070c-1.773-1.147-3.886-1.814-6.151-1.814s-4.378 0.667-6.152 1.814h-1.070l0.613-2.765zM3.516 6.941c0-0.042 0.034-0.075 0.075-0.075h4.286c0.042 0 0.075 0.034 0.075 0.075v1.295h-4.437v-1.295zM5.019 26.013v-6.777c0-0.345-0.28-0.624-0.625-0.624s-0.625 0.279-0.625 0.624v6.777h-1.597c-0.509 0-0.922-0.413-0.922-0.921v-14.688c0-0.508 0.414-0.921 0.922-0.921h8.477c-2.212 2.068-3.597 5.008-3.597 8.265s1.385 6.197 3.597 8.265h-5.631zM24.169 26.013c-0.745 0.52-1.563 0.942-2.436 1.248-1.044 0.366-2.167 0.566-3.335 0.566s-2.29-0.2-3.335-0.566c-0.873-0.306-1.691-0.728-2.436-1.248-2.613-1.823-4.325-4.848-4.325-8.265s1.712-6.441 4.325-8.265c0.745-0.52 1.563-0.942 2.436-1.248 1.045-0.366 2.167-0.566 3.335-0.566s2.29 0.2 3.335 0.566c0.873 0.306 1.691 0.728 2.436 1.248 2.613 1.823 4.325 4.848 4.325 8.265s-1.712 6.441-4.325 8.265zM30.75 25.092c0 0.508-0.414 0.921-0.922 0.921h-3.68c2.212-2.068 3.597-5.008 3.597-8.265s-1.385-6.197-3.597-8.265h3.68c0.509 0 0.922 0.413 0.922 0.921v14.688z"></path>
<path d="M18.37 10.111c-4.248 0-7.704 3.456-7.704 7.704s3.456 7.704 7.704 7.704c0.619 0 1.235-0.074 1.831-0.219 0.315-0.077 0.508-0.394 0.431-0.709s-0.394-0.508-0.709-0.431c-0.505 0.123-1.028 0.186-1.553 0.186-3.601 0-6.53-2.929-6.53-6.53s2.929-6.53 6.53-6.53c3.601 0 6.53 2.929 6.53 6.53 0 1.312-0.387 2.578-1.121 3.659-0.182 0.268-0.112 0.633 0.156 0.815s0.633 0.112 0.815-0.156c0.866-1.277 1.323-2.77 1.323-4.318 0-4.248-3.456-7.704-7.704-7.704z"></path>
<path d="M4.741 11.296c-1.307 0-2.37 1.063-2.37 2.37s1.063 2.37 2.37 2.37c1.307 0 2.37-1.063 2.37-2.37s-1.063-2.37-2.37-2.37zM4.741 14.764c-0.605 0-1.097-0.492-1.097-1.097s0.492-1.097 1.097-1.097 1.097 0.492 1.097 1.097c0 0.605-0.492 1.097-1.097 1.097z"></path>
<path d="M23.692 23.625c-0.008-0.037-0.019-0.075-0.034-0.111s-0.033-0.070-0.055-0.102c-0.021-0.033-0.046-0.063-0.073-0.090s-0.058-0.052-0.090-0.074c-0.033-0.021-0.067-0.040-0.103-0.055s-0.073-0.026-0.111-0.034c-0.076-0.015-0.155-0.015-0.232 0-0.038 0.008-0.075 0.019-0.111 0.034s-0.070 0.033-0.102 0.055c-0.032 0.022-0.062 0.047-0.090 0.074s-0.052 0.057-0.073 0.090c-0.021 0.032-0.040 0.066-0.055 0.102s-0.026 0.073-0.034 0.111c-0.008 0.038-0.012 0.078-0.012 0.116s0.004 0.078 0.012 0.116c0.008 0.038 0.019 0.075 0.034 0.111s0.033 0.070 0.055 0.102c0.021 0.033 0.046 0.063 0.073 0.090s0.058 0.052 0.090 0.073c0.033 0.021 0.067 0.040 0.102 0.055s0.073 0.026 0.111 0.034c0.038 0.008 0.077 0.012 0.116 0.012s0.078-0.004 0.116-0.012c0.038-0.008 0.075-0.019 0.111-0.034s0.070-0.033 0.103-0.055c0.032-0.021 0.063-0.046 0.090-0.073 0.11-0.11 0.173-0.263 0.173-0.419 0-0.038-0.004-0.078-0.011-0.116z"></path>
</symbol>
<symbol id="icon-Group-20" viewBox="0 0 32 32">
<path d="M17.221 1.2l13.578 13.578 1.2-1.2-13.578-13.578-1.2 1.2z"></path>
<path d="M19.234 7.601c-0.736-0.736-1.846-0.95-2.803-0.54l-9.423 4.039c-1.113 0.477-1.971 1.406-2.352 2.56-0.893 2.708-2.048 6.287-2.981 9.346-0.466 1.529-0.879 2.934-1.175 4.039-0.148 0.552-0.27 1.036-0.355 1.427-0.079 0.364-0.144 0.723-0.144 0.981v0.352l2.194 2.194h0.352c0.259 0 0.617-0.065 0.981-0.144 0.391-0.085 0.875-0.206 1.427-0.355 1.105-0.297 2.51-0.709 4.039-1.175 3.059-0.933 6.638-2.088 9.346-2.981 1.154-0.381 2.082-1.239 2.56-2.352l4.039-9.423c0.41-0.957 0.196-2.067-0.54-2.803l-5.164-5.164zM17.099 8.622c0.319-0.137 0.689-0.065 0.934 0.18l5.164 5.164c0.245 0.245 0.317 0.615 0.18 0.934l-4.039 9.424c-0.287 0.669-0.843 1.181-1.531 1.408-2.702 0.891-6.268 2.042-9.31 2.97-1.522 0.464-2.906 0.87-3.984 1.16-0.539 0.145-0.994 0.259-1.347 0.335-0.075 0.016-0.143 0.030-0.207 0.043l8.671-8.671c0.946 0.452 2.114 0.286 2.898-0.498 0.994-0.994 0.994-2.606 0-3.6s-2.606-0.994-3.6 0c-0.784 0.784-0.95 1.952-0.498 2.898l-8.672 8.672c0.012-0.063 0.027-0.132 0.043-0.207 0.077-0.353 0.19-0.808 0.335-1.347 0.289-1.078 0.696-2.462 1.16-3.984 0.928-3.042 2.079-6.608 2.97-9.31 0.227-0.688 0.739-1.244 1.408-1.531l9.424-4.039z"></path>
</symbol>
<symbol id="icon-Vector" viewBox="0 0 26 32">
<path d="M24.12 23.111v7.111h-9.932v-7.111h9.932zM24.12 1.778v14.222h-9.932v-14.222h9.932zM8.513 16h-7.094v14.222h7.094v-14.222zM8.513 1.778v7.111h-7.094v-7.111h7.094zM14.188 0c-0.784 0-1.419 0.796-1.419 1.778v14.222c0 0.982 0.635 1.778 1.419 1.778h9.932c0.784 0 1.419-0.796 1.419-1.778v-14.222c0-0.982-0.635-1.778-1.419-1.778h-9.932zM14.188 21.333c-0.784 0-1.419 0.796-1.419 1.778v7.111c0 0.982 0.635 1.778 1.419 1.778h9.932c0.784 0 1.419-0.796 1.419-1.778v-7.111c0-0.982-0.635-1.778-1.419-1.778h-9.932zM0 16c0-0.982 0.635-1.778 1.419-1.778h7.094c0.784 0 1.419 0.796 1.419 1.778v14.222c0 0.982-0.635 1.778-1.419 1.778h-7.094c-0.784 0-1.419-0.796-1.419-1.778v-14.222zM1.419 0c-0.784 0-1.419 0.796-1.419 1.778v7.111c0 0.982 0.635 1.778 1.419 1.778h7.094c0.784 0 1.419-0.796 1.419-1.778v-7.111c0-0.982-0.635-1.778-1.419-1.778h-7.094z"></path>
</symbol>
<symbol id="icon-menu" viewBox="0 0 32 32">
<path fill="#000" style="fill: var(--color1, #000)" d="M0 0h32v32h-32v-32z"></path>
<path fill="#c4c4c4" style="fill: var(--color2, #c4c4c4)" d="M4 8h24v4h-24v-4z"></path>
<path fill="#c4c4c4" style="fill: var(--color2, #c4c4c4)" d="M10.667 18.667h17.333v4h-17.333v-4z"></path>
</symbol>
</defs>
</svg>
